<svg width="155" height="30" viewBox="0 0 155 30" fill="none" xmlns="http://www.w3.org/2000/svg">
<path d="M40.432 21V19.32L40.272 18.952V15.944C40.272 15.4107 40.1067 14.9947 39.776 14.696C39.456 14.3973 38.96 14.248 38.288 14.248C37.8293 14.248 37.376 14.3227 36.928 14.472C36.4907 14.6107 36.1173 14.8027 35.808 15.048L34.912 13.304C35.3813 12.9733 35.9467 12.7173 36.608 12.536C37.2693 12.3547 37.9413 12.264 38.624 12.264C39.936 12.264 40.9547 12.5733 41.68 13.192C42.4053 13.8107 42.768 14.776 42.768 16.088V21H40.432ZM37.808 21.128C37.136 21.128 36.56 21.016 36.08 20.792C35.6 20.5573 35.232 20.2427 34.976 19.848C34.72 19.4533 34.592 19.0107 34.592 18.52C34.592 18.008 34.7147 17.56 34.96 17.176C35.216 16.792 35.616 16.4933 36.16 16.28C36.704 16.056 37.4133 15.944 38.288 15.944H40.576V17.4H38.56C37.9733 17.4 37.568 17.496 37.344 17.688C37.1307 17.88 37.024 18.12 37.024 18.408C37.024 18.728 37.1467 18.984 37.392 19.176C37.648 19.3573 37.9947 19.448 38.432 19.448C38.848 19.448 39.2213 19.352 39.552 19.16C39.8827 18.9573 40.1227 18.664 40.272 18.28L40.656 19.432C40.4747 19.9867 40.144 20.408 39.664 20.696C39.184 20.984 38.5653 21.128 37.808 21.128ZM45.027 21V12.392H47.523V21H45.027ZM46.275 11.192C45.8163 11.192 45.443 11.0587 45.155 10.792C44.867 10.5253 44.723 10.1947 44.723 9.8C44.723 9.40533 44.867 9.07467 45.155 8.808C45.443 8.54133 45.8163 8.408 46.275 8.408C46.7337 8.408 47.107 8.536 47.395 8.792C47.683 9.03733 47.827 9.35733 47.827 9.752C47.827 10.168 47.683 10.5147 47.395 10.792C47.1177 11.0587 46.7443 11.192 46.275 11.192ZM49.8395 21V12.392H52.2235V14.824L51.8875 14.12C52.1435 13.512 52.5542 13.0533 53.1195 12.744C53.6848 12.424 54.3728 12.264 55.1835 12.264V14.568C55.0768 14.5573 54.9808 14.552 54.8955 14.552C54.8102 14.5413 54.7195 14.536 54.6235 14.536C53.9408 14.536 53.3862 14.7333 52.9595 15.128C52.5435 15.512 52.3355 16.1147 52.3355 16.936V21H49.8395ZM61.7713 21.128C61.0139 21.128 60.3633 20.968 59.8193 20.648C59.2753 20.328 58.8593 19.8427 58.5713 19.192C58.2833 18.5307 58.1393 17.6987 58.1393 16.696C58.1393 15.6827 58.2886 14.8507 58.5873 14.2C58.8966 13.5493 59.3233 13.064 59.8673 12.744C60.4113 12.424 61.0459 12.264 61.7713 12.264C62.5819 12.264 63.3073 12.4453 63.9473 12.808C64.5979 13.1707 65.1099 13.6827 65.4833 14.344C65.8673 15.0053 66.0593 15.7893 66.0593 16.696C66.0593 17.592 65.8673 18.3707 65.4833 19.032C65.1099 19.6933 64.5979 20.2107 63.9473 20.584C63.3073 20.9467 62.5819 21.128 61.7713 21.128ZM56.6833 21V9.128H59.1793V14.136L59.0193 16.68L59.0673 19.24V21H56.6833ZM61.3393 19.08C61.7553 19.08 62.1233 18.984 62.4433 18.792C62.7739 18.6 63.0353 18.328 63.2273 17.976C63.4299 17.6133 63.5312 17.1867 63.5312 16.696C63.5312 16.1947 63.4299 15.768 63.2273 15.416C63.0353 15.064 62.7739 14.792 62.4433 14.6C62.1233 14.408 61.7553 14.312 61.3393 14.312C60.9233 14.312 60.5499 14.408 60.2193 14.6C59.8886 14.792 59.6273 15.064 59.4353 15.416C59.2433 15.768 59.1473 16.1947 59.1473 16.696C59.1473 17.1867 59.2433 17.6133 59.4353 17.976C59.6273 18.328 59.8886 18.6 60.2193 18.792C60.5499 18.984 60.9233 19.08 61.3393 19.08ZM72.9621 12.264C73.6448 12.264 74.2528 12.4027 74.7861 12.68C75.3301 12.9467 75.7568 13.3627 76.0661 13.928C76.3755 14.4827 76.5301 15.1973 76.5301 16.072V21H74.0341V16.456C74.0341 15.7627 73.8795 15.2507 73.5701 14.92C73.2715 14.5893 72.8448 14.424 72.2901 14.424C71.8955 14.424 71.5381 14.5093 71.2181 14.68C70.9088 14.84 70.6635 15.0907 70.4821 15.432C70.3115 15.7733 70.2261 16.2107 70.2261 16.744V21H67.7301V12.392H70.1141V14.776L69.6661 14.056C69.9755 13.48 70.4181 13.0373 70.9941 12.728C71.5701 12.4187 72.2261 12.264 72.9621 12.264ZM83.8806 21.128C83.1233 21.128 82.4726 20.968 81.9286 20.648C81.3846 20.328 80.9686 19.8427 80.6806 19.192C80.3926 18.5307 80.2486 17.6987 80.2486 16.696C80.2486 15.6827 80.398 14.8507 80.6966 14.2C81.006 13.5493 81.4326 13.064 81.9766 12.744C82.5206 12.424 83.1553 12.264 83.8806 12.264C84.6913 12.264 85.4166 12.4453 86.0566 12.808C86.7073 13.1707 87.2193 13.6827 87.5926 14.344C87.9766 15.0053 88.1686 15.7893 88.1686 16.696C88.1686 17.592 87.9766 18.3707 87.5926 19.032C87.2193 19.6933 86.7073 20.2107 86.0566 20.584C85.4166 20.9467 84.6913 21.128 83.8806 21.128ZM78.7926 21V9.128H81.2886V14.136L81.1286 16.68L81.1766 19.24V21H78.7926ZM83.4486 19.08C83.8646 19.08 84.2326 18.984 84.5526 18.792C84.8833 18.6 85.1446 18.328 85.3366 17.976C85.5393 17.6133 85.6406 17.1867 85.6406 16.696C85.6406 16.1947 85.5393 15.768 85.3366 15.416C85.1446 15.064 84.8833 14.792 84.5526 14.6C84.2326 14.408 83.8646 14.312 83.4486 14.312C83.0326 14.312 82.6593 14.408 82.3286 14.6C81.998 14.792 81.7366 15.064 81.5446 15.416C81.3526 15.768 81.2566 16.1947 81.2566 16.696C81.2566 17.1867 81.3526 17.6133 81.5446 17.976C81.7366 18.328 81.998 18.6 82.3286 18.792C82.6593 18.984 83.0326 19.08 83.4486 19.08Z" fill="#E48900"/>
<path d="M93.9995 21.128C93.0715 21.128 92.2448 20.9413 91.5195 20.568C90.7942 20.184 90.2235 19.656 89.8075 18.984C89.4022 18.312 89.1995 17.5493 89.1995 16.696C89.1995 15.832 89.4022 15.0693 89.8075 14.408C90.2235 13.736 90.7942 13.2133 91.5195 12.84C92.2448 12.456 93.0715 12.264 93.9995 12.264C94.9062 12.264 95.6955 12.456 96.3675 12.84C97.0395 13.2133 97.5355 13.752 97.8555 14.456L95.9195 15.496C95.6955 15.0907 95.4128 14.792 95.0715 14.6C94.7408 14.408 94.3782 14.312 93.9835 14.312C93.5568 14.312 93.1728 14.408 92.8315 14.6C92.4902 14.792 92.2182 15.064 92.0155 15.416C91.8235 15.768 91.7275 16.1947 91.7275 16.696C91.7275 17.1973 91.8235 17.624 92.0155 17.976C92.2182 18.328 92.4902 18.6 92.8315 18.792C93.1728 18.984 93.5568 19.08 93.9835 19.08C94.3782 19.08 94.7408 18.9893 95.0715 18.808C95.4128 18.616 95.6955 18.312 95.9195 17.896L97.8555 18.952C97.5355 19.6453 97.0395 20.184 96.3675 20.568C95.6955 20.9413 94.9062 21.128 93.9995 21.128ZM103.279 21.128C102.362 21.128 101.546 20.936 100.831 20.552C100.127 20.168 99.5673 19.6453 99.1513 18.984C98.7459 18.312 98.5433 17.5493 98.5433 16.696C98.5433 15.832 98.7459 15.0693 99.1513 14.408C99.5673 13.736 100.127 13.2133 100.831 12.84C101.546 12.456 102.362 12.264 103.279 12.264C104.186 12.264 104.997 12.456 105.711 12.84C106.426 13.2133 106.986 13.7307 107.391 14.392C107.797 15.0533 107.999 15.8213 107.999 16.696C107.999 17.5493 107.797 18.312 107.391 18.984C106.986 19.6453 106.426 20.168 105.711 20.552C104.997 20.936 104.186 21.128 103.279 21.128ZM103.279 19.08C103.695 19.08 104.069 18.984 104.399 18.792C104.73 18.6 104.991 18.328 105.183 17.976C105.375 17.6133 105.471 17.1867 105.471 16.696C105.471 16.1947 105.375 15.768 105.183 15.416C104.991 15.064 104.73 14.792 104.399 14.6C104.069 14.408 103.695 14.312 103.279 14.312C102.863 14.312 102.49 14.408 102.159 14.6C101.829 14.792 101.562 15.064 101.359 15.416C101.167 15.768 101.071 16.1947 101.071 16.696C101.071 17.1867 101.167 17.6133 101.359 17.976C101.562 18.328 101.829 18.6 102.159 18.792C102.49 18.984 102.863 19.08 103.279 19.08ZM114.756 21.128C114.03 21.128 113.396 20.968 112.852 20.648C112.308 20.328 111.881 19.8427 111.572 19.192C111.273 18.5307 111.124 17.6987 111.124 16.696C111.124 15.6827 111.268 14.8507 111.556 14.2C111.844 13.5493 112.26 13.064 112.804 12.744C113.348 12.424 113.998 12.264 114.756 12.264C115.566 12.264 116.292 12.4507 116.932 12.824C117.582 13.1867 118.094 13.6987 118.468 14.36C118.852 15.0213 119.044 15.8 119.044 16.696C119.044 17.6027 118.852 18.3867 118.468 19.048C118.094 19.7093 117.582 20.2213 116.932 20.584C116.292 20.9467 115.566 21.128 114.756 21.128ZM109.668 24.104V12.392H112.052V14.152L112.004 16.712L112.164 19.256V24.104H109.668ZM114.324 19.08C114.74 19.08 115.108 18.984 115.428 18.792C115.758 18.6 116.02 18.328 116.212 17.976C116.414 17.6133 116.516 17.1867 116.516 16.696C116.516 16.1947 116.414 15.768 116.212 15.416C116.02 15.064 115.758 14.792 115.428 14.6C115.108 14.408 114.74 14.312 114.324 14.312C113.908 14.312 113.534 14.408 113.204 14.6C112.873 14.792 112.612 15.064 112.42 15.416C112.228 15.768 112.132 16.1947 112.132 16.696C112.132 17.1867 112.228 17.6133 112.42 17.976C112.612 18.328 112.873 18.6 113.204 18.792C113.534 18.984 113.908 19.08 114.324 19.08ZM121.568 24.232C121.12 24.232 120.677 24.1627 120.24 24.024C119.803 23.8853 119.445 23.6933 119.168 23.448L120.08 21.672C120.272 21.8427 120.491 21.976 120.736 22.072C120.992 22.168 121.243 22.216 121.488 22.216C121.84 22.216 122.117 22.1307 122.32 21.96C122.533 21.8 122.725 21.528 122.896 21.144L123.344 20.088L123.536 19.816L126.624 12.392H129.024L125.136 21.528C124.859 22.2213 124.539 22.7653 124.176 23.16C123.824 23.5547 123.429 23.832 122.992 23.992C122.565 24.152 122.091 24.232 121.568 24.232ZM123.04 21.336L119.2 12.392H121.776L124.752 19.592L123.04 21.336ZM133.968 21.128C133.04 21.128 132.214 20.9413 131.488 20.568C130.763 20.184 130.192 19.656 129.776 18.984C129.371 18.312 129.168 17.5493 129.168 16.696C129.168 15.832 129.371 15.0693 129.776 14.408C130.192 13.736 130.763 13.2133 131.488 12.84C132.214 12.456 133.04 12.264 133.968 12.264C134.875 12.264 135.664 12.456 136.336 12.84C137.008 13.2133 137.504 13.752 137.824 14.456L135.888 15.496C135.664 15.0907 135.382 14.792 135.04 14.6C134.71 14.408 134.347 14.312 133.952 14.312C133.526 14.312 133.142 14.408 132.8 14.6C132.459 14.792 132.187 15.064 131.984 15.416C131.792 15.768 131.696 16.1947 131.696 16.696C131.696 17.1973 131.792 17.624 131.984 17.976C132.187 18.328 132.459 18.6 132.8 18.792C133.142 18.984 133.526 19.08 133.952 19.08C134.347 19.08 134.71 18.9893 135.04 18.808C135.382 18.616 135.664 18.312 135.888 17.896L137.824 18.952C137.504 19.6453 137.008 20.184 136.336 20.568C135.664 20.9413 134.875 21.128 133.968 21.128ZM144.541 21V19.32L144.381 18.952V15.944C144.381 15.4107 144.216 14.9947 143.885 14.696C143.565 14.3973 143.069 14.248 142.397 14.248C141.939 14.248 141.485 14.3227 141.037 14.472C140.6 14.6107 140.227 14.8027 139.917 15.048L139.021 13.304C139.491 12.9733 140.056 12.7173 140.717 12.536C141.379 12.3547 142.051 12.264 142.733 12.264C144.045 12.264 145.064 12.5733 145.789 13.192C146.515 13.8107 146.877 14.776 146.877 16.088V21H144.541ZM141.917 21.128C141.245 21.128 140.669 21.016 140.189 20.792C139.709 20.5573 139.341 20.2427 139.085 19.848C138.829 19.4533 138.701 19.0107 138.701 18.52C138.701 18.008 138.824 17.56 139.069 17.176C139.325 16.792 139.725 16.4933 140.269 16.28C140.813 16.056 141.523 15.944 142.397 15.944H144.685V17.4H142.669C142.083 17.4 141.677 17.496 141.453 17.688C141.24 17.88 141.133 18.12 141.133 18.408C141.133 18.728 141.256 18.984 141.501 19.176C141.757 19.3573 142.104 19.448 142.541 19.448C142.957 19.448 143.331 19.352 143.661 19.16C143.992 18.9573 144.232 18.664 144.381 18.28L144.765 19.432C144.584 19.9867 144.253 20.408 143.773 20.696C143.293 20.984 142.675 21.128 141.917 21.128ZM152.656 21.128C151.643 21.128 150.854 20.872 150.288 20.36C149.723 19.8373 149.44 19.064 149.44 18.04V10.488H151.936V18.008C151.936 18.3707 152.032 18.6533 152.224 18.856C152.416 19.048 152.678 19.144 153.008 19.144C153.403 19.144 153.739 19.0373 154.016 18.824L154.688 20.584C154.432 20.7653 154.123 20.904 153.76 21C153.408 21.0853 153.04 21.128 152.656 21.128ZM148.112 14.504V12.584H154.08V14.504H148.112Z" fill="#080808"/>
<g clip-path="url(#clip0_803_96)">
<path d="M22.9841 19.0982C22.7697 19.5142 22.5242 19.9123 22.25 20.2895V18.3642L22.9841 19.0982ZM24.5447 5.45528C23.3019 4.17173 21.8165 3.14763 20.1748 2.4424C18.5277 1.73488 16.7563 1.36246 14.9637 1.34688C13.1712 1.33131 11.3935 1.67288 9.73445 2.35167C8.07535 3.03046 6.56805 4.03288 5.30049 5.30043C4.03294 6.56798 3.03053 8.07529 2.35173 9.73439C1.67294 11.3935 1.33137 13.1712 1.34695 14.9637C1.36252 16.7562 1.73494 18.5277 2.44246 20.1747C3.14769 21.8165 4.1718 23.3018 5.45534 24.5447C6.69822 25.8282 8.18356 26.8523 9.82529 27.5576C11.4723 28.2651 13.2438 28.6375 15.0363 28.6531C16.8289 28.6686 18.6065 28.3271 20.2656 27.6483C21.9247 26.9695 23.432 25.9671 24.6996 24.6995C25.9671 23.432 26.9696 21.9247 27.6483 20.2656C28.3271 18.6065 28.6687 16.8288 28.6531 15.0363C28.6376 13.2438 28.2651 11.4723 27.5576 9.82523C26.8524 8.1835 25.8283 6.69815 24.5447 5.45528ZM20.2895 7.74998H18.3643L19.0983 7.01593C19.5142 7.23031 19.9124 7.47581 20.2895 7.74998ZM12.25 7.49826V6.45298C12.6978 6.31051 13.1551 6.20286 13.6177 6.13059L12.25 7.49826ZM7.01599 10.9017C7.23037 10.4858 7.47587 10.0876 7.75004 9.71048V11.6358L7.19464 11.0804L7.01599 10.9017ZM6.45244 17.75C6.3095 17.3018 6.2016 16.8441 6.1293 16.381L7.49832 17.75H6.45244ZM10.9018 22.984C10.4859 22.7696 10.0877 22.5241 9.71054 22.25H11.6358L10.9018 22.984ZM17.75 22.5017V23.5474C17.302 23.6902 16.8444 23.798 16.3815 23.8703L17.75 22.5017ZM17.75 13.8642V16.1358L16.1358 17.75H13.8534L12.25 16.1374V13.8642L13.8643 12.25H16.1358L17.75 13.8642ZM23.8703 13.6185L22.5018 12.25H23.5474C23.6902 12.698 23.798 13.1556 23.8703 13.6185Z" fill="#080808" stroke="#E48900" stroke-width="2"/>
</g>
<defs>
<clipPath id="clip0_803_96">
<rect width="30" height="30" fill="white"/>
</clipPath>
</defs>
</svg>
